<mxfile host="app.diagrams.net" modified="2021-11-25T08:18:55.571Z" agent="5.0 (Windows NT 10.0; Win64; x64) AppleWebKit/537.36 (KHTML, like Gecko) Chrome/96.0.4664.45 Safari/537.36" etag="Y4b08BEZxlRt65do0SSv" version="15.8.6" type="github">
  <diagram id="9yIABQzzSW3EPo3nlpqk" name="第 1 页">
    <mxGraphModel dx="1278" dy="556" grid="1" gridSize="10" guides="1" tooltips="1" connect="1" arrows="1" fold="1" page="1" pageScale="1" pageWidth="1169" pageHeight="827" math="0" shadow="0">
      <root>
        <mxCell id="0" />
        <mxCell id="1" parent="0" />
        <mxCell id="Ok2JGVrmFW1sOmzhVr70-58" value="" style="rounded=1;whiteSpace=wrap;html=1;fillColor=#fff2cc;strokeColor=#d6b656;" vertex="1" parent="1">
          <mxGeometry x="20" y="40" width="780" height="420" as="geometry" />
        </mxCell>
        <mxCell id="Ok2JGVrmFW1sOmzhVr70-55" value="" style="rounded=1;whiteSpace=wrap;html=1;fillColor=#dae8fc;strokeColor=#6c8ebf;" vertex="1" parent="1">
          <mxGeometry x="50" y="80" width="710" height="340" as="geometry" />
        </mxCell>
        <mxCell id="Ok2JGVrmFW1sOmzhVr70-4" style="edgeStyle=none;rounded=0;orthogonalLoop=1;jettySize=auto;html=1;exitX=1;exitY=0.5;exitDx=0;exitDy=0;exitPerimeter=0;endArrow=none;endFill=0;" edge="1" parent="1" source="Ok2JGVrmFW1sOmzhVr70-1" target="Ok2JGVrmFW1sOmzhVr70-38">
          <mxGeometry relative="1" as="geometry">
            <mxPoint x="740" y="245" as="targetPoint" />
          </mxGeometry>
        </mxCell>
        <mxCell id="Ok2JGVrmFW1sOmzhVr70-6" value="g1&lt;br&gt;DHCP&lt;br&gt;.246" style="edgeLabel;html=1;align=center;verticalAlign=middle;resizable=0;points=[];" vertex="1" connectable="0" parent="Ok2JGVrmFW1sOmzhVr70-4">
          <mxGeometry x="-0.7888" y="2" relative="1" as="geometry">
            <mxPoint as="offset" />
          </mxGeometry>
        </mxCell>
        <mxCell id="Ok2JGVrmFW1sOmzhVr70-7" value="192.168.2.0/24" style="edgeLabel;html=1;align=center;verticalAlign=middle;resizable=0;points=[];" vertex="1" connectable="0" parent="Ok2JGVrmFW1sOmzhVr70-4">
          <mxGeometry x="0.7398" relative="1" as="geometry">
            <mxPoint x="-47" y="-25" as="offset" />
          </mxGeometry>
        </mxCell>
        <mxCell id="Ok2JGVrmFW1sOmzhVr70-12" style="rounded=0;orthogonalLoop=1;jettySize=auto;html=1;exitX=0.5;exitY=1;exitDx=0;exitDy=0;exitPerimeter=0;entryX=0.563;entryY=0;entryDx=0;entryDy=0;entryPerimeter=0;endArrow=none;endFill=0;" edge="1" parent="1" source="Ok2JGVrmFW1sOmzhVr70-1" target="Ok2JGVrmFW1sOmzhVr70-11">
          <mxGeometry relative="1" as="geometry" />
        </mxCell>
        <mxCell id="Ok2JGVrmFW1sOmzhVr70-16" value="g3&amp;nbsp; .7" style="edgeLabel;html=1;align=center;verticalAlign=middle;resizable=0;points=[];" vertex="1" connectable="0" parent="Ok2JGVrmFW1sOmzhVr70-12">
          <mxGeometry x="-0.6712" y="-1" relative="1" as="geometry">
            <mxPoint x="1" y="2" as="offset" />
          </mxGeometry>
        </mxCell>
        <mxCell id="Ok2JGVrmFW1sOmzhVr70-1" value="" style="shape=mxgraph.cisco.routers.router;sketch=0;html=1;pointerEvents=1;dashed=0;fillColor=#036897;strokeColor=#ffffff;strokeWidth=2;verticalLabelPosition=bottom;verticalAlign=top;align=center;outlineConnect=0;" vertex="1" parent="1">
          <mxGeometry x="490" y="140" width="78" height="53" as="geometry" />
        </mxCell>
        <mxCell id="Ok2JGVrmFW1sOmzhVr70-13" style="edgeStyle=none;rounded=0;orthogonalLoop=1;jettySize=auto;html=1;exitX=0.5;exitY=0;exitDx=0;exitDy=0;exitPerimeter=0;entryX=0.603;entryY=1.053;entryDx=0;entryDy=0;entryPerimeter=0;endArrow=none;endFill=0;" edge="1" parent="1" source="Ok2JGVrmFW1sOmzhVr70-2" target="Ok2JGVrmFW1sOmzhVr70-11">
          <mxGeometry relative="1" as="geometry" />
        </mxCell>
        <mxCell id="Ok2JGVrmFW1sOmzhVr70-15" value="g2&amp;nbsp; .6" style="edgeLabel;html=1;align=center;verticalAlign=middle;resizable=0;points=[];" vertex="1" connectable="0" parent="Ok2JGVrmFW1sOmzhVr70-13">
          <mxGeometry x="-0.5802" y="1" relative="1" as="geometry">
            <mxPoint x="4" as="offset" />
          </mxGeometry>
        </mxCell>
        <mxCell id="Ok2JGVrmFW1sOmzhVr70-2" value="CSR1612" style="shape=mxgraph.cisco.routers.router;sketch=0;html=1;pointerEvents=1;dashed=0;fillColor=#036897;strokeColor=#ffffff;strokeWidth=2;verticalLabelPosition=bottom;verticalAlign=top;align=center;outlineConnect=0;" vertex="1" parent="1">
          <mxGeometry x="490" y="320" width="78" height="53" as="geometry" />
        </mxCell>
        <mxCell id="Ok2JGVrmFW1sOmzhVr70-8" style="edgeStyle=none;rounded=0;orthogonalLoop=1;jettySize=auto;html=1;exitX=1;exitY=0.5;exitDx=0;exitDy=0;exitPerimeter=0;endArrow=none;endFill=0;" edge="1" parent="1" source="Ok2JGVrmFW1sOmzhVr70-2" target="Ok2JGVrmFW1sOmzhVr70-38">
          <mxGeometry relative="1" as="geometry">
            <mxPoint x="578" y="176.5" as="sourcePoint" />
            <mxPoint x="740" y="268.0370786516854" as="targetPoint" />
          </mxGeometry>
        </mxCell>
        <mxCell id="Ok2JGVrmFW1sOmzhVr70-9" value="g1&lt;br&gt;DHCP&lt;br&gt;.164" style="edgeLabel;html=1;align=center;verticalAlign=middle;resizable=0;points=[];" vertex="1" connectable="0" parent="Ok2JGVrmFW1sOmzhVr70-8">
          <mxGeometry x="-0.7888" y="2" relative="1" as="geometry">
            <mxPoint x="1" as="offset" />
          </mxGeometry>
        </mxCell>
        <mxCell id="Ok2JGVrmFW1sOmzhVr70-10" value="192.168.2.0/24" style="edgeLabel;html=1;align=center;verticalAlign=middle;resizable=0;points=[];" vertex="1" connectable="0" parent="Ok2JGVrmFW1sOmzhVr70-8">
          <mxGeometry x="0.7398" relative="1" as="geometry">
            <mxPoint x="-47" y="22" as="offset" />
          </mxGeometry>
        </mxCell>
        <mxCell id="Ok2JGVrmFW1sOmzhVr70-11" value="Outside&lt;br&gt;192.168.2.0/24" style="rounded=0;whiteSpace=wrap;html=1;" vertex="1" parent="1">
          <mxGeometry x="420" y="230" width="90" height="30" as="geometry" />
        </mxCell>
        <mxCell id="Ok2JGVrmFW1sOmzhVr70-18" style="edgeStyle=none;rounded=0;orthogonalLoop=1;jettySize=auto;html=1;entryX=0;entryY=0.5;entryDx=0;entryDy=0;entryPerimeter=0;endArrow=none;endFill=0;" edge="1" parent="1" source="Ok2JGVrmFW1sOmzhVr70-17" target="Ok2JGVrmFW1sOmzhVr70-1">
          <mxGeometry relative="1" as="geometry" />
        </mxCell>
        <mxCell id="Ok2JGVrmFW1sOmzhVr70-19" value="g2" style="edgeLabel;html=1;align=center;verticalAlign=middle;resizable=0;points=[];" vertex="1" connectable="0" parent="Ok2JGVrmFW1sOmzhVr70-18">
          <mxGeometry x="0.828" y="-1" relative="1" as="geometry">
            <mxPoint as="offset" />
          </mxGeometry>
        </mxCell>
        <mxCell id="Ok2JGVrmFW1sOmzhVr70-20" value="10.10.10.0/24" style="edgeLabel;html=1;align=center;verticalAlign=middle;resizable=0;points=[];" vertex="1" connectable="0" parent="Ok2JGVrmFW1sOmzhVr70-18">
          <mxGeometry x="-0.112" relative="1" as="geometry">
            <mxPoint x="48" as="offset" />
          </mxGeometry>
        </mxCell>
        <mxCell id="Ok2JGVrmFW1sOmzhVr70-25" value="eth0" style="edgeLabel;html=1;align=center;verticalAlign=middle;resizable=0;points=[];" vertex="1" connectable="0" parent="Ok2JGVrmFW1sOmzhVr70-18">
          <mxGeometry x="-0.9264" y="-1" relative="1" as="geometry">
            <mxPoint as="offset" />
          </mxGeometry>
        </mxCell>
        <mxCell id="Ok2JGVrmFW1sOmzhVr70-17" value="TinyCore" style="points=[[0.03,0.03,0],[0.5,0,0],[0.97,0.03,0],[1,0.4,0],[0.97,0.745,0],[0.5,1,0],[0.03,0.745,0],[0,0.4,0]];verticalLabelPosition=bottom;sketch=0;html=1;verticalAlign=top;aspect=fixed;align=center;pointerEvents=1;shape=mxgraph.cisco19.workstation;fillColor=#005073;strokeColor=none;" vertex="1" parent="1">
          <mxGeometry x="120" y="153" width="50" height="40" as="geometry" />
        </mxCell>
        <mxCell id="Ok2JGVrmFW1sOmzhVr70-21" value="SH" style="ellipse;whiteSpace=wrap;html=1;" vertex="1" parent="1">
          <mxGeometry x="240" y="158" width="70" height="30" as="geometry" />
        </mxCell>
        <mxCell id="Ok2JGVrmFW1sOmzhVr70-29" value="TinyCore" style="points=[[0.03,0.03,0],[0.5,0,0],[0.97,0.03,0],[1,0.4,0],[0.97,0.745,0],[0.5,1,0],[0.03,0.745,0],[0,0.4,0]];verticalLabelPosition=bottom;sketch=0;html=1;verticalAlign=top;aspect=fixed;align=center;pointerEvents=1;shape=mxgraph.cisco19.workstation;fillColor=#005073;strokeColor=none;" vertex="1" parent="1">
          <mxGeometry x="120" y="331.5" width="50" height="40" as="geometry" />
        </mxCell>
        <mxCell id="Ok2JGVrmFW1sOmzhVr70-31" style="edgeStyle=none;rounded=0;orthogonalLoop=1;jettySize=auto;html=1;entryX=0;entryY=0.5;entryDx=0;entryDy=0;entryPerimeter=0;endArrow=none;endFill=0;exitX=1;exitY=0.4;exitDx=0;exitDy=0;exitPerimeter=0;" edge="1" parent="1" source="Ok2JGVrmFW1sOmzhVr70-29" target="Ok2JGVrmFW1sOmzhVr70-2">
          <mxGeometry relative="1" as="geometry">
            <mxPoint x="153.52" y="349.5189855072464" as="sourcePoint" />
            <mxPoint x="473.52" y="343.49" as="targetPoint" />
          </mxGeometry>
        </mxCell>
        <mxCell id="Ok2JGVrmFW1sOmzhVr70-32" value="g2" style="edgeLabel;html=1;align=center;verticalAlign=middle;resizable=0;points=[];" vertex="1" connectable="0" parent="Ok2JGVrmFW1sOmzhVr70-31">
          <mxGeometry x="0.828" y="-1" relative="1" as="geometry">
            <mxPoint as="offset" />
          </mxGeometry>
        </mxCell>
        <mxCell id="Ok2JGVrmFW1sOmzhVr70-33" value="20.20.20.0/24" style="edgeLabel;html=1;align=center;verticalAlign=middle;resizable=0;points=[];" vertex="1" connectable="0" parent="Ok2JGVrmFW1sOmzhVr70-31">
          <mxGeometry x="-0.112" relative="1" as="geometry">
            <mxPoint x="48" as="offset" />
          </mxGeometry>
        </mxCell>
        <mxCell id="Ok2JGVrmFW1sOmzhVr70-34" value="eth0" style="edgeLabel;html=1;align=center;verticalAlign=middle;resizable=0;points=[];" vertex="1" connectable="0" parent="Ok2JGVrmFW1sOmzhVr70-31">
          <mxGeometry x="-0.9264" y="-1" relative="1" as="geometry">
            <mxPoint x="14" as="offset" />
          </mxGeometry>
        </mxCell>
        <mxCell id="Ok2JGVrmFW1sOmzhVr70-30" value="BJ" style="ellipse;whiteSpace=wrap;html=1;" vertex="1" parent="1">
          <mxGeometry x="240" y="331.5" width="70" height="30" as="geometry" />
        </mxCell>
        <mxCell id="Ok2JGVrmFW1sOmzhVr70-37" value="CSR2019" style="text;html=1;resizable=0;autosize=1;align=center;verticalAlign=middle;points=[];fillColor=none;strokeColor=none;rounded=0;" vertex="1" parent="1">
          <mxGeometry x="485" y="110" width="70" height="20" as="geometry" />
        </mxCell>
        <mxCell id="Ok2JGVrmFW1sOmzhVr70-38" value="" style="sketch=0;pointerEvents=1;shadow=0;dashed=0;html=1;strokeColor=none;fillColor=#434445;aspect=fixed;labelPosition=center;verticalLabelPosition=bottom;verticalAlign=top;align=center;outlineConnect=0;shape=mxgraph.vvd.physical_network_adapter;" vertex="1" parent="1">
          <mxGeometry x="730" y="230" width="86.21" height="50" as="geometry" />
        </mxCell>
        <mxCell id="Ok2JGVrmFW1sOmzhVr70-48" style="edgeStyle=none;rounded=0;orthogonalLoop=1;jettySize=auto;html=1;exitX=0.5;exitY=1;exitDx=0;exitDy=0;exitPerimeter=0;entryX=1;entryY=0.5;entryDx=0;entryDy=0;entryPerimeter=0;endArrow=none;endFill=0;" edge="1" parent="1" source="Ok2JGVrmFW1sOmzhVr70-41" target="Ok2JGVrmFW1sOmzhVr70-47">
          <mxGeometry relative="1" as="geometry" />
        </mxCell>
        <mxCell id="Ok2JGVrmFW1sOmzhVr70-50" value="eth1&lt;br&gt;WAN" style="edgeLabel;html=1;align=center;verticalAlign=middle;resizable=0;points=[];" vertex="1" connectable="0" parent="Ok2JGVrmFW1sOmzhVr70-48">
          <mxGeometry x="0.7829" y="-1" relative="1" as="geometry">
            <mxPoint x="2" as="offset" />
          </mxGeometry>
        </mxCell>
        <mxCell id="Ok2JGVrmFW1sOmzhVr70-41" value="Meraki" style="sketch=0;points=[[0.5,0,0],[1,0.5,0],[0.5,1,0],[0,0.5,0],[0.145,0.145,0],[0.8555,0.145,0],[0.855,0.8555,0],[0.145,0.855,0]];verticalLabelPosition=bottom;html=1;verticalAlign=top;aspect=fixed;align=center;pointerEvents=1;shape=mxgraph.cisco19.rect;prIcon=router;fillColor=#FAFAFA;strokeColor=#005073;" vertex="1" parent="1">
          <mxGeometry x="1040" y="210" width="50" height="50" as="geometry" />
        </mxCell>
        <mxCell id="Ok2JGVrmFW1sOmzhVr70-44" style="edgeStyle=none;shape=link;rounded=0;orthogonalLoop=1;jettySize=auto;html=1;exitX=0.5;exitY=0;exitDx=0;exitDy=0;exitPerimeter=0;entryX=0.427;entryY=1.067;entryDx=0;entryDy=0;entryPerimeter=0;endArrow=none;endFill=0;" edge="1" parent="1" source="Ok2JGVrmFW1sOmzhVr70-42" target="Ok2JGVrmFW1sOmzhVr70-43">
          <mxGeometry relative="1" as="geometry" />
        </mxCell>
        <mxCell id="Ok2JGVrmFW1sOmzhVr70-46" style="edgeStyle=none;rounded=0;orthogonalLoop=1;jettySize=auto;html=1;exitX=0.5;exitY=1;exitDx=0;exitDy=0;exitPerimeter=0;entryX=0.5;entryY=0;entryDx=0;entryDy=0;entryPerimeter=0;endArrow=none;endFill=0;" edge="1" parent="1" source="Ok2JGVrmFW1sOmzhVr70-42" target="Ok2JGVrmFW1sOmzhVr70-41">
          <mxGeometry relative="1" as="geometry" />
        </mxCell>
        <mxCell id="Ok2JGVrmFW1sOmzhVr70-42" value="联通路由器" style="sketch=0;points=[[0.5,0,0],[1,0.5,0],[0.5,1,0],[0,0.5,0],[0.145,0.145,0],[0.8555,0.145,0],[0.855,0.8555,0],[0.145,0.855,0]];verticalLabelPosition=bottom;html=1;verticalAlign=top;aspect=fixed;align=center;pointerEvents=1;shape=mxgraph.cisco19.rect;prIcon=router;fillColor=#FAFAFA;strokeColor=#005073;" vertex="1" parent="1">
          <mxGeometry x="920" y="110" width="50" height="50" as="geometry" />
        </mxCell>
        <mxCell id="Ok2JGVrmFW1sOmzhVr70-43" value="" style="sketch=0;outlineConnect=0;fontColor=#232F3E;gradientColor=none;fillColor=#232F3D;strokeColor=none;dashed=0;verticalLabelPosition=bottom;verticalAlign=top;align=center;html=1;fontSize=12;fontStyle=0;aspect=fixed;pointerEvents=1;shape=mxgraph.aws4.internet;" vertex="1" parent="1">
          <mxGeometry x="910" y="30" width="78" height="48" as="geometry" />
        </mxCell>
        <mxCell id="Ok2JGVrmFW1sOmzhVr70-49" style="edgeStyle=none;rounded=0;orthogonalLoop=1;jettySize=auto;html=1;endArrow=none;endFill=0;" edge="1" parent="1" source="Ok2JGVrmFW1sOmzhVr70-47" target="Ok2JGVrmFW1sOmzhVr70-38">
          <mxGeometry relative="1" as="geometry" />
        </mxCell>
        <mxCell id="Ok2JGVrmFW1sOmzhVr70-51" value="eth0&lt;br&gt;LAN&lt;br&gt;.1" style="edgeLabel;html=1;align=center;verticalAlign=middle;resizable=0;points=[];" vertex="1" connectable="0" parent="Ok2JGVrmFW1sOmzhVr70-49">
          <mxGeometry x="-0.6319" y="1" relative="1" as="geometry">
            <mxPoint as="offset" />
          </mxGeometry>
        </mxCell>
        <mxCell id="Ok2JGVrmFW1sOmzhVr70-47" value="WRT0" style="sketch=0;points=[[0.5,0,0],[1,0.5,0],[0.5,1,0],[0,0.5,0],[0.145,0.145,0],[0.8555,0.145,0],[0.855,0.8555,0],[0.145,0.855,0]];verticalLabelPosition=bottom;html=1;verticalAlign=top;aspect=fixed;align=center;pointerEvents=1;shape=mxgraph.cisco19.rect;prIcon=router;fillColor=#FAFAFA;strokeColor=#005073;" vertex="1" parent="1">
          <mxGeometry x="890" y="290" width="50" height="50" as="geometry" />
        </mxCell>
        <mxCell id="Ok2JGVrmFW1sOmzhVr70-52" value="NAT" style="text;html=1;resizable=0;autosize=1;align=center;verticalAlign=middle;points=[];fillColor=none;strokeColor=none;rounded=0;" vertex="1" parent="1">
          <mxGeometry x="895" y="260" width="40" height="20" as="geometry" />
        </mxCell>
        <mxCell id="Ok2JGVrmFW1sOmzhVr70-53" value="NAT" style="text;html=1;resizable=0;autosize=1;align=center;verticalAlign=middle;points=[];fillColor=none;strokeColor=none;rounded=0;" vertex="1" parent="1">
          <mxGeometry x="1090" y="225" width="40" height="20" as="geometry" />
        </mxCell>
        <mxCell id="Ok2JGVrmFW1sOmzhVr70-54" value="NAT" style="text;html=1;resizable=0;autosize=1;align=center;verticalAlign=middle;points=[];fillColor=none;strokeColor=none;rounded=0;" vertex="1" parent="1">
          <mxGeometry x="970" y="125" width="40" height="20" as="geometry" />
        </mxCell>
        <mxCell id="Ok2JGVrmFW1sOmzhVr70-56" value="VMware Player 15.0" style="text;html=1;resizable=0;autosize=1;align=center;verticalAlign=middle;points=[];fillColor=none;strokeColor=none;rounded=0;" vertex="1" parent="1">
          <mxGeometry x="600" y="110" width="120" height="20" as="geometry" />
        </mxCell>
        <mxCell id="Ok2JGVrmFW1sOmzhVr70-59" value="Windows 10" style="text;html=1;resizable=0;autosize=1;align=center;verticalAlign=middle;points=[];fillColor=none;strokeColor=none;rounded=0;" vertex="1" parent="1">
          <mxGeometry x="670" y="50" width="80" height="20" as="geometry" />
        </mxCell>
      </root>
    </mxGraphModel>
  </diagram>
</mxfile>
